<svg xmlns="http://www.w3.org/2000/svg" viewBox="0 0 1948 1584" preserveAspectRatio="xMidYMid meet">
<g transform="translate(0.000000,1584.000000) scale(0.100000,-0.100000)"
fill="#2A4D3A" stroke="none">
<path d="M6594 15825 c-5 -12 -32 -15 -155 -15 -138 0 -150 -1 -161 -20 -12
-19 -24 -20 -160 -20 -137 0 -149 -1 -160 -20 -11 -18 -24 -20 -100 -20 -77 0
-89 -2 -100 -20 -11 -18 -24 -20 -100 -20 -77 0 -89 -2 -100 -20 -11 -17 -24
-20 -80 -20 -57 0 -70 -3 -80 -20 -10 -15 -24 -20 -60 -20 -37 0 -51 -5 -60
-20 -11 -17 -24 -20 -80 -20 -57 0 -70 -3 -80 -20 -10 -15 -24 -20 -60 -20
-37 0 -51 -5 -60 -20 -10 -15 -24 -20 -60 -20 -37 0 -51 -5 -60 -20 -10 -15
-24 -20 -60 -20 -37 0 -51 -5 -60 -20 -8 -12 -24 -20 -40 -20 -17 0 -33 -8
-40 -20 -10 -15 -24 -20 -60 -20 -37 0 -51 -5 -60 -20 -10 -15 -24 -20 -60
-20 -37 0 -51 -5 -60 -20 -8 -12 -24 -20 -40 -20 -17 0 -33 -8 -40 -20 -8 -12
-24 -20 -40 -20 -17 0 -33 -8 -40 -20 -10 -15 -24 -20 -60 -20 -37 0 -51 -5
-60 -20 -8 -12 -24 -20 -38 -20 -17 0 -38 -13 -63 -40 -24 -26 -45 -40 -62
-40 -14 0 -30 -9 -37 -20 -10 -15 -24 -20 -60 -20 -37 0 -51 -5 -60 -20 -8
-12 -24 -20 -38 -20 -17 0 -38 -13 -63 -40 -24 -26 -45 -40 -62 -40 -14 0 -30
-9 -37 -20 -8 -12 -24 -20 -40 -20 -17 0 -33 -8 -40 -20 -8 -12 -24 -20 -40
-20 -17 0 -33 -8 -40 -20 -8 -12 -24 -20 -38 -20 -17 0 -38 -13 -63 -40 -22
-25 -45 -40 -60 -40 -14 0 -37 -15 -60 -40 -22 -24 -45 -40 -59 -40 -15 0 -43
-21 -81 -60 -36 -38 -66 -60 -80 -60 -14 0 -43 -22 -80 -60 -37 -39 -65 -60
-80 -60 -14 0 -37 -16 -60 -40 -21 -23 -46 -40 -58 -40 -15 0 -56 -33 -121
-100 -63 -63 -107 -100 -120 -100 -14 0 -82 -61 -200 -179 -148 -149 -184
-180 -211 -183 -28 -3 -32 -7 -35 -35 -3 -26 -30 -59 -154 -183 -83 -82 -154
-150 -159 -150 -5 0 -9 -15 -9 -34 0 -33 -2 -35 -37 -38 -35 -3 -38 -6 -41
-36 -2 -23 -17 -46 -54 -82 -28 -28 -55 -50 -59 -50 -5 0 -9 -13 -9 -29 0 -23
-15 -45 -71 -100 -40 -39 -76 -71 -80 -71 -5 0 -9 -13 -9 -29 0 -23 -13 -42
-51 -80 -29 -28 -56 -51 -60 -51 -5 0 -9 -13 -9 -30 0 -20 -10 -39 -31 -60
-18 -16 -36 -30 -40 -30 -5 0 -9 -15 -9 -34 0 -26 -5 -36 -20 -41 -14 -4 -20
-15 -20 -36 0 -22 -11 -39 -40 -66 -24 -23 -40 -46 -40 -60 0 -21 -53 -83 -71
-83 -5 0 -9 -15 -9 -34 0 -26 -5 -36 -20 -41 -14 -4 -20 -15 -20 -36 0 -19
-10 -39 -31 -59 -18 -16 -36 -30 -40 -30 -5 0 -9 -15 -9 -34 0 -26 -5 -36 -20
-41 -15 -5 -20 -15 -20 -40 0 -25 -5 -35 -20 -40 -15 -5 -20 -15 -20 -40 0
-25 -5 -35 -20 -40 -15 -5 -20 -15 -20 -40 0 -25 -5 -35 -20 -40 -15 -5 -20
-15 -20 -40 0 -25 -5 -35 -20 -40 -15 -5 -20 -15 -20 -40 0 -24 -5 -34 -20
-38 -15 -4 -20 -14 -20 -39 0 -22 -6 -37 -20 -46 -15 -9 -20 -23 -20 -57 0
-40 -5 -50 -40 -82 -39 -36 -40 -39 -40 -104 0 -59 -3 -68 -20 -74 -15 -5 -20
-15 -20 -40 0 -25 -5 -35 -20 -40 -14 -5 -20 -15 -20 -38 0 -21 -7 -36 -20
-45 -15 -9 -20 -23 -20 -60 0 -36 -5 -50 -20 -60 -15 -9 -20 -23 -20 -60 0
-36 -5 -50 -20 -60 -15 -9 -20 -23 -20 -60 0 -36 -5 -50 -20 -60 -15 -9 -20
-23 -20 -60 0 -36 -5 -50 -20 -60 -17 -10 -20 -23 -20 -80 0 -56 -3 -69 -20
-80 -18 -11 -20 -23 -20 -100 0 -76 -2 -89 -20 -100 -17 -10 -20 -23 -20 -80
0 -56 -3 -69 -20 -80 -18 -11 -20 -23 -20 -100 0 -76 -2 -89 -20 -100 -18 -11
-20 -23 -20 -120 0 -97 -2 -108 -20 -120 -20 -12 -21 -22 -20 -150 1 -75 1
-143 0 -149 0 -7 -7 -13 -15 -13 -13 0 -15 -283 -15 -2490 0 -1995 3 -2490 13
-2490 7 0 18 -9 25 -20 7 -11 19 -20 28 -20 9 0 18 9 21 20 7 27 54 27 71 0
12 -20 23 -20 1482 -20 1459 0 1470 0 1482 20 8 12 24 20 39 20 18 0 28 -6 32
-20 5 -20 47 -29 47 -10 0 6 11 20 25 32 l25 22 0 2345 c0 2335 0 2346 20
2359 18 11 20 23 20 140 0 116 2 128 20 140 17 10 20 23 20 80 0 56 3 69 20
80 17 10 20 23 20 80 0 56 3 69 20 80 15 9 20 23 20 60 0 36 5 50 20 60 15 9
20 23 20 60 0 36 5 50 20 60 16 9 20 23 20 61 0 41 4 51 20 56 14 5 20 15 20
38 0 21 7 36 20 45 16 9 20 23 20 61 0 41 4 51 20 56 15 5 20 15 20 40 0 25 5
35 20 40 15 5 20 15 20 40 0 25 5 35 20 40 14 4 20 15 20 36 0 19 10 39 31 59
18 16 36 30 40 30 5 0 9 15 9 34 0 26 5 36 20 41 14 4 20 15 20 36 0 19 10 39
31 59 18 16 36 30 40 30 5 0 9 13 9 30 0 20 10 39 31 60 18 16 36 30 40 30 5
0 9 13 9 29 0 23 13 42 51 80 29 28 56 51 60 51 5 0 9 13 9 29 0 24 21 50 111
140 61 61 115 111 120 111 5 0 9 16 9 35 0 31 3 35 27 35 21 0 56 30 165 140
91 91 147 140 161 140 13 0 51 30 99 80 52 53 87 80 101 80 14 0 38 16 60 40
22 25 45 40 60 40 14 0 37 15 60 40 24 26 45 40 62 40 14 0 30 9 37 20 8 12
24 20 38 20 17 0 38 13 63 40 24 26 45 40 62 40 14 0 30 9 37 20 10 15 24 20
60 20 37 0 51 5 60 20 8 12 24 20 40 20 17 0 33 8 40 20 8 12 24 20 40 20 17
0 33 8 40 20 8 12 24 20 40 20 17 0 33 8 40 20 10 15 24 20 60 20 37 0 51 5
60 20 11 17 24 20 80 20 57 0 70 3 80 20 10 15 24 20 60 20 37 0 51 5 60 20
10 15 24 20 60 20 37 0 51 5 60 20 12 18 24 20 120 20 97 0 109 2 120 20 12
18 24 20 140 20 117 0 129 2 140 20 12 18 24 20 138 20 85 0 130 4 138 12 9 9
12 388 12 1645 l0 1633 -245 0 c-209 0 -246 -2 -251 -15z"/>
<path d="M18558 15150 c-10 -15 -24 -20 -60 -20 -37 0 -51 -5 -60 -20 -10 -15
-24 -20 -60 -20 -37 0 -51 -5 -60 -20 -8 -12 -24 -20 -40 -20 -17 0 -33 -8
-40 -20 -8 -12 -24 -20 -38 -20 -17 0 -38 -13 -61 -38 -19 -21 -43 -41 -52
-45 -11 -4 -17 -17 -17 -36 0 -23 -12 -42 -51 -80 -29 -28 -56 -51 -60 -51 -5
0 -9 -15 -9 -33 0 -21 -7 -36 -20 -45 -18 -11 -20 -23 -20 -100 0 -76 -2 -89
-20 -100 -18 -11 -20 -23 -20 -102 0 -80 2 -90 21 -104 20 -13 22 -23 20 -97
l-2 -82 60 -59 c48 -46 61 -65 61 -88 0 -17 4 -30 9 -30 5 0 47 -38 93 -85 60
-60 92 -85 109 -85 13 0 30 -9 37 -20 7 -12 23 -20 40 -20 16 0 32 -8 40 -20
9 -15 23 -20 60 -20 36 0 50 -5 60 -20 11 -19 23 -20 202 -20 179 0 191 1 202
20 10 15 24 20 60 20 37 0 51 5 60 20 8 12 24 20 40 20 17 0 33 8 40 20 7 11
24 20 37 20 18 0 58 34 149 125 68 69 128 125 133 125 5 0 9 15 9 33 0 21 7
36 20 45 17 10 20 23 20 82 0 56 3 70 15 70 13 0 15 25 15 169 0 158 -1 169
-19 174 -17 4 -19 11 -14 67 l6 62 -42 39 c-30 29 -41 47 -41 69 0 16 -4 30
-9 30 -5 0 -47 38 -93 85 -55 55 -92 85 -107 85 -12 0 -37 17 -58 40 -33 35
-42 40 -83 40 -34 0 -48 5 -58 20 -9 15 -23 20 -60 20 -36 0 -50 5 -60 20 -11
18 -23 20 -142 20 -119 0 -131 -2 -142 -20z m240 -100 c10 -17 23 -20 80 -20
56 0 69 -3 80 -20 7 -12 23 -20 40 -20 16 0 32 -8 40 -20 7 -11 23 -20 36 -20
17 0 54 -31 130 -106 85 -85 106 -112 106 -134 0 -20 6 -31 20 -35 16 -5 20
-15 20 -56 0 -38 4 -52 20 -61 19 -12 20 -24 20 -178 0 -156 -1 -166 -20 -178
-17 -10 -20 -22 -19 -55 2 -39 -2 -46 -51 -95 -29 -28 -57 -52 -61 -52 -5 0
-9 -13 -9 -30 0 -35 -41 -80 -73 -80 -14 0 -38 -16 -60 -40 -24 -26 -45 -40
-62 -40 -14 0 -30 -9 -37 -20 -10 -15 -24 -20 -60 -20 -37 0 -51 -5 -60 -20
-12 -19 -24 -20 -198 -20 -174 0 -186 1 -198 20 -9 15 -23 20 -60 20 -36 0
-50 5 -60 20 -7 11 -23 20 -36 20 -17 0 -54 31 -130 106 -87 87 -106 111 -106
136 0 21 -6 31 -20 35 -15 4 -20 14 -20 38 0 25 -5 35 -20 40 -16 5 -20 15
-20 56 0 38 -4 52 -20 61 -18 12 -20 24 -20 118 0 94 2 106 20 118 16 9 20 23
20 61 0 41 4 51 20 56 15 5 20 15 20 40 0 25 5 35 20 40 14 4 20 15 20 35 0
21 16 44 66 94 41 41 74 66 88 66 13 0 37 17 59 40 24 26 45 40 62 40 14 0 30
9 37 20 11 17 24 20 80 20 57 0 70 3 80 20 12 18 24 20 118 20 94 0 106 -2
118 -20z"/>
<path d="M18402 14798 c-9 -9 -12 -103 -12 -360 0 -337 1 -348 20 -360 12 -8
20 -24 20 -38 0 -33 17 -50 50 -50 33 0 50 17 50 51 0 18 6 28 20 32 27 7 25
32 -2 52 l-23 16 23 16 c19 13 22 24 22 84 l0 69 44 0 c41 0 49 -5 110 -66 51
-51 66 -72 66 -95 0 -16 4 -29 9 -29 4 0 22 -14 40 -30 21 -21 31 -40 31 -60
0 -36 18 -42 110 -38 59 3 65 5 68 26 2 14 -3 25 -13 28 -33 13 -65 55 -65 84
0 17 -4 30 -9 30 -4 0 -22 14 -40 30 -21 20 -31 40 -31 59 0 21 -6 32 -20 36
-16 5 -20 15 -20 55 l0 49 38 3 c34 3 37 6 40 38 2 20 12 40 23 48 16 11 19
26 19 99 l0 86 -52 53 c-36 36 -61 54 -78 54 -14 0 -31 9 -38 20 -11 19 -23
20 -200 20 -133 0 -192 -4 -200 -12z m363 -153 c21 -22 25 -35 25 -85 0 -50
-4 -63 -25 -85 -14 -14 -36 -25 -49 -25 -13 0 -31 -10 -40 -22 l-16 -23 -16
23 c-11 14 -27 22 -45 22 l-29 0 0 69 c0 60 -3 70 -22 84 l-23 15 25 25 c22
22 34 25 107 26 75 1 84 -1 108 -24z"/>
<path d="M13638 14990 c-12 -19 -24 -20 -180 -20 -157 0 -169 -1 -180 -20 -12
-18 -24 -20 -140 -20 -117 0 -129 -2 -140 -20 -11 -18 -24 -20 -100 -20 -77 0
-89 -2 -100 -20 -12 -18 -24 -20 -120 -20 -97 0 -109 -2 -120 -20 -11 -18 -24
-20 -100 -20 -77 0 -89 -2 -100 -20 -8 -12 -24 -20 -40 -20 -17 0 -33 -8 -40
-20 -11 -17 -24 -20 -80 -20 -57 0 -70 -3 -80 -20 -11 -17 -24 -20 -80 -20
-57 0 -70 -3 -80 -20 -8 -12 -24 -20 -40 -20 -17 0 -33 -8 -40 -20 -10 -15
-24 -20 -60 -20 -37 0 -51 -5 -60 -20 -10 -15 -24 -20 -60 -20 -37 0 -51 -5
-60 -20 -10 -15 -24 -20 -60 -20 -37 0 -51 -5 -60 -20 -8 -12 -24 -20 -40 -20
-17 0 -33 -8 -40 -20 -8 -12 -24 -20 -40 -20 -17 0 -33 -8 -40 -20 -10 -15
-24 -20 -60 -20 -37 0 -51 -5 -60 -20 -8 -12 -24 -20 -40 -20 -17 0 -33 -8
-40 -20 -8 -12 -24 -20 -40 -20 -17 0 -33 -8 -40 -20 -8 -12 -24 -20 -40 -20
-17 0 -33 -8 -40 -20 -8 -12 -24 -20 -40 -20 -17 0 -33 -8 -40 -20 -8 -12 -24
-20 -40 -20 -17 0 -33 -8 -40 -20 -8 -12 -24 -20 -38 -20 -17 0 -38 -13 -63
-40 -24 -26 -45 -40 -62 -40 -14 0 -30 -9 -37 -20 -8 -12 -24 -20 -38 -20 -17
0 -38 -13 -63 -40 -22 -25 -45 -40 -60 -40 -14 0 -37 -15 -60 -40 -22 -25 -45
-40 -60 -40 -14 0 -37 -15 -60 -40 -21 -23 -46 -40 -58 -40 -15 0 -56 -33
-121 -100 -64 -64 -107 -100 -121 -100 -13 0 -50 -30 -99 -80 -49 -49 -87 -80
-100 -80 -14 0 -90 -69 -226 -205 -112 -113 -208 -205 -213 -205 -5 0 -9 -13
-9 -29 0 -24 -21 -50 -111 -140 -61 -61 -115 -111 -120 -111 -5 0 -9 -13 -9
-29 0 -23 -13 -42 -51 -80 -29 -28 -56 -51 -60 -51 -5 0 -9 -13 -9 -29 0 -23
-15 -45 -71 -100 -40 -39 -76 -71 -80 -71 -5 0 -9 -15 -9 -34 0 -25 -5 -35
-20 -39 -15 -4 -20 -14 -20 -36 0 -22 -9 -40 -31 -61 -18 -16 -36 -30 -40 -30
-5 0 -9 -13 -9 -30 0 -20 -10 -39 -31 -60 -18 -16 -36 -30 -40 -30 -5 0 -9
-15 -9 -34 0 -25 -5 -35 -20 -39 -15 -4 -20 -14 -20 -40 0 -27 -5 -37 -20 -42
-14 -5 -20 -15 -20 -38 0 -21 -7 -36 -20 -45 -13 -8 -20 -23 -20 -41 0 -21 -6
-32 -20 -36 -15 -5 -20 -15 -20 -40 0 -25 -5 -35 -20 -40 -15 -5 -20 -15 -20
-40 0 -25 -5 -35 -20 -40 -14 -5 -20 -15 -20 -38 0 -21 -7 -36 -20 -45 -13 -8
-20 -23 -20 -41 0 -21 -6 -32 -20 -36 -15 -5 -20 -15 -20 -40 0 -25 -5 -35
-20 -40 -15 -5 -20 -15 -20 -40 0 -24 -5 -34 -20 -38 -15 -4 -20 -14 -20 -39
0 -22 -6 -37 -20 -46 -15 -9 -20 -23 -20 -60 0 -36 -5 -50 -20 -60 -16 -9 -20
-23 -20 -61 0 -41 -4 -51 -20 -56 -14 -5 -20 -15 -20 -38 0 -21 -7 -36 -20
-45 -15 -9 -20 -23 -20 -60 0 -36 -5 -50 -20 -60 -17 -10 -20 -23 -20 -80 0
-56 -3 -69 -20 -80 -15 -9 -20 -23 -20 -60 0 -36 -5 -50 -20 -60 -17 -10 -20
-23 -20 -80 0 -56 -3 -69 -20 -80 -15 -9 -20 -23 -20 -60 0 -36 -5 -50 -20
-60 -17 -10 -20 -23 -20 -80 0 -56 -3 -69 -20 -80 -18 -11 -20 -23 -20 -120 0
-96 -2 -108 -20 -120 -18 -11 -20 -23 -20 -100 0 -76 -2 -89 -20 -100 -17 -10
-20 -23 -20 -80 0 -56 -3 -69 -20 -80 -19 -11 -20 -23 -20 -160 0 -136 -1
-148 -20 -160 -19 -12 -20 -23 -20 -220 0 -196 -1 -208 -20 -220 -19 -12 -20
-23 -20 -340 0 -316 -1 -328 -20 -340 -19 -12 -20 -23 -20 -420 0 -396 -1
-408 -20 -420 -19 -12 -20 -23 -20 -260 0 -236 -1 -248 -20 -260 -18 -11 -20
-23 -20 -120 0 -96 -2 -108 -20 -120 -19 -11 -20 -23 -20 -160 0 -136 -1 -148
-20 -160 -15 -9 -20 -23 -20 -60 0 -36 -5 -50 -20 -60 -17 -10 -20 -23 -20
-80 0 -56 -3 -69 -20 -80 -15 -9 -20 -23 -20 -60 0 -36 -5 -50 -20 -60 -17
-10 -20 -23 -20 -81 0 -61 -3 -70 -20 -76 -14 -5 -20 -15 -20 -38 0 -21 -7
-36 -20 -45 -15 -9 -20 -23 -20 -60 0 -36 -5 -50 -20 -60 -16 -9 -20 -23 -20
-61 0 -41 -4 -51 -20 -56 -15 -5 -20 -15 -20 -40 0 -25 -5 -35 -20 -40 -14 -4
-20 -15 -20 -36 0 -19 -10 -39 -31 -59 -18 -16 -36 -30 -40 -30 -5 0 -9 -15
-9 -34 0 -26 -5 -36 -20 -41 -14 -4 -20 -15 -20 -35 0 -22 -13 -42 -51 -79
-29 -28 -56 -51 -60 -51 -5 0 -9 -13 -9 -29 0 -23 -20 -49 -106 -135 -67 -67
-114 -106 -127 -106 -13 0 -51 -31 -99 -80 -52 -53 -87 -80 -101 -80 -14 0
-38 -16 -60 -40 -22 -25 -45 -40 -60 -40 -14 0 -37 -15 -60 -40 -32 -35 -42
-40 -82 -40 -34 0 -48 -5 -57 -20 -10 -15 -24 -20 -60 -20 -37 0 -51 -5 -60
-20 -8 -12 -24 -20 -40 -20 -17 0 -33 -8 -40 -20 -10 -15 -24 -20 -60 -20 -37
0 -51 -5 -60 -20 -12 -19 -24 -20 -160 -20 -137 0 -149 -1 -160 -20 -13 -20
-24 -20 -720 -20 -705 0 -707 0 -713 21 -5 14 -14 19 -28 17 l-22 -3 -3 -1505
c-1 -828 0 -1515 3 -1527 4 -18 12 -23 38 -23 21 0 36 -7 45 -20 12 -20 23
-20 1182 -20 1159 0 1170 0 1182 20 12 19 24 20 200 20 177 0 189 1 200 20 12
18 24 20 120 20 97 0 109 2 120 20 12 18 24 20 120 20 97 0 109 2 120 20 11
17 24 20 80 20 57 0 70 3 80 20 11 17 24 20 80 20 57 0 70 3 80 20 11 17 24
20 80 20 57 0 70 3 80 20 10 15 24 20 60 20 37 0 51 5 60 20 10 15 24 20 60
20 37 0 51 5 60 20 11 17 24 20 80 20 57 0 70 3 80 20 8 12 24 20 40 20 17 0
33 8 40 20 8 12 24 20 40 20 17 0 33 8 40 20 8 12 24 20 40 20 17 0 33 8 40
20 10 15 24 20 60 20 37 0 51 5 60 20 8 12 24 20 38 20 17 0 38 13 63 40 24
26 45 40 62 40 14 0 30 9 37 20 8 12 24 20 40 20 17 0 33 8 40 20 8 12 24 20
38 20 17 0 38 13 63 40 22 25 45 40 60 40 14 0 37 15 60 40 22 24 45 40 59 40
15 0 43 21 81 60 35 36 66 60 79 60 14 0 100 79 266 245 134 135 248 245 253
245 5 0 9 15 9 34 0 26 5 36 20 41 15 5 20 15 20 40 0 32 2 34 38 37 35 3 37
5 40 40 2 26 9 39 23 43 13 4 19 15 19 36 0 19 10 39 31 59 18 16 36 30 40 30
5 0 9 14 9 30 0 23 10 40 40 67 36 33 40 42 40 84 0 39 4 49 20 54 14 4 20 15
20 36 0 19 10 39 31 59 18 16 36 30 40 30 5 0 9 15 9 33 0 21 7 36 20 45 16 9
20 23 20 61 0 41 4 51 20 56 15 5 20 15 20 40 0 25 5 35 20 40 15 5 20 15 20
40 0 25 5 35 20 40 14 5 20 15 20 38 0 21 7 36 20 45 16 9 20 23 20 61 0 41 4
51 20 56 14 5 20 15 20 38 0 21 7 36 20 45 16 9 20 23 20 61 0 41 4 51 20 56
14 5 20 15 20 38 0 21 7 36 20 45 15 9 20 23 20 60 0 36 5 50 20 60 17 10 20
23 20 80 0 56 3 69 20 80 15 9 20 23 20 60 0 36 5 50 20 60 15 9 20 23 20 60
0 36 5 50 20 60 18 11 20 23 20 100 0 76 2 89 20 100 15 9 20 23 20 60 0 36 5
50 20 60 18 11 20 23 20 100 0 76 2 89 20 100 18 11 20 23 20 100 0 76 2 89
20 100 18 11 20 23 20 100 0 76 2 89 20 100 18 11 20 23 20 100 0 76 2 89 20
100 18 11 20 23 20 120 0 96 2 108 20 120 18 11 20 23 20 140 0 116 2 128 20
140 19 11 20 23 20 180 0 156 1 168 20 180 19 11 20 23 20 200 0 176 1 188 20
200 19 12 20 23 20 300 0 276 1 288 20 300 19 12 20 23 20 420 0 396 1 408 20
420 19 12 20 23 20 260 0 236 1 248 20 260 18 11 20 23 20 140 0 116 2 128 20
140 17 10 20 23 20 80 0 56 3 69 20 80 18 11 20 23 20 100 0 76 2 89 20 100
15 9 20 23 20 60 0 36 5 50 20 60 15 9 20 23 20 60 0 36 5 50 20 60 16 9 20
23 20 61 0 41 4 51 20 56 14 5 20 15 20 38 0 21 7 36 20 45 16 9 20 23 20 61
0 41 4 51 20 56 15 5 20 15 20 40 0 25 5 35 20 40 14 4 20 15 20 36 0 19 10
39 31 59 18 16 36 30 40 30 5 0 9 15 9 34 0 25 5 35 20 39 15 4 20 14 20 40 0
27 5 37 20 42 14 4 20 15 20 35 0 22 13 42 51 79 29 28 56 51 60 51 5 0 9 13
9 29 0 24 28 57 171 200 94 94 175 171 180 171 5 0 9 16 9 35 0 31 3 35 27 35
20 0 46 19 105 80 50 50 87 80 100 80 14 0 51 30 100 80 52 53 87 80 101 80
14 0 38 16 60 40 24 26 45 40 62 40 14 0 30 9 37 20 8 12 24 20 40 20 17 0 33
8 40 20 8 12 24 20 38 20 17 0 38 13 63 40 24 26 45 40 62 40 14 0 30 9 37 20
8 12 24 20 40 20 17 0 33 8 40 20 10 15 24 20 60 20 37 0 51 5 60 20 10 15 24
20 60 20 37 0 51 5 60 20 8 12 24 20 40 20 17 0 33 8 40 20 11 17 24 20 80 20
57 0 70 3 80 20 12 18 24 20 120 20 97 0 109 2 120 20 12 19 24 20 218 20 147
0 209 3 218 12 17 17 17 3099 0 3116 -9 9 -107 12 -380 12 -357 0 -368 -1
-380 -20z"/>
<path d="M15583 11456 l-33 -33 0 -2244 c0 -2233 0 -2244 -20 -2257 -19 -11
-20 -23 -20 -180 0 -156 -1 -168 -20 -180 -17 -10 -20 -23 -20 -80 0 -56 -3
-69 -20 -80 -18 -11 -20 -23 -20 -100 0 -76 -2 -89 -20 -100 -17 -10 -20 -23
-20 -81 0 -61 -3 -70 -20 -76 -14 -5 -20 -15 -20 -38 0 -21 -7 -36 -20 -45
-16 -9 -20 -23 -20 -61 0 -41 -4 -51 -20 -56 -14 -5 -20 -15 -20 -38 0 -21 -7
-36 -20 -45 -17 -10 -20 -23 -20 -80 0 -56 -3 -69 -20 -80 -13 -8 -20 -23 -20
-41 0 -21 -6 -32 -20 -36 -15 -5 -20 -15 -20 -40 0 -25 -5 -35 -20 -40 -14 -4
-20 -15 -20 -36 0 -19 -10 -39 -31 -59 -18 -16 -36 -30 -40 -30 -5 0 -9 -15
-9 -34 0 -25 -5 -35 -20 -39 -15 -4 -20 -14 -20 -36 0 -24 -10 -41 -40 -68
-28 -26 -40 -45 -40 -64 0 -19 -6 -30 -20 -34 -14 -4 -20 -15 -20 -36 0 -19
-10 -39 -31 -59 -18 -16 -36 -30 -40 -30 -5 0 -9 -13 -9 -29 0 -24 -18 -47
-91 -120 -51 -50 -96 -91 -100 -91 -5 0 -9 -13 -9 -29 0 -24 -28 -57 -166
-195 -108 -107 -174 -166 -187 -166 -13 0 -58 -38 -119 -100 -65 -66 -107
-100 -121 -100 -14 0 -44 -23 -80 -60 -37 -39 -65 -60 -80 -60 -14 0 -37 -16
-60 -40 -24 -26 -45 -40 -62 -40 -14 0 -30 -9 -37 -20 -8 -12 -24 -20 -38 -20
-17 0 -38 -13 -63 -40 -24 -26 -45 -40 -62 -40 -14 0 -30 -9 -37 -20 -8 -12
-24 -20 -40 -20 -17 0 -33 -8 -40 -20 -8 -12 -24 -20 -40 -20 -17 0 -33 -8
-40 -20 -8 -12 -24 -20 -40 -20 -17 0 -33 -8 -40 -20 -10 -15 -24 -20 -60 -20
-37 0 -51 -5 -60 -20 -10 -15 -24 -20 -60 -20 -37 0 -51 -5 -60 -20 -8 -12
-24 -20 -40 -20 -17 0 -33 -8 -40 -20 -10 -15 -24 -20 -60 -20 -37 0 -51 -5
-60 -20 -10 -15 -24 -20 -60 -20 -37 0 -51 -5 -60 -20 -11 -17 -24 -20 -80
-20 -57 0 -70 -3 -80 -20 -11 -17 -24 -20 -80 -20 -57 0 -70 -3 -80 -20 -12
-19 -24 -20 -160 -20 -137 0 -149 -1 -160 -20 -12 -19 -24 -20 -158 -20 -100
0 -150 -4 -158 -12 -9 -9 -12 -388 -12 -1645 l0 -1633 245 0 c209 0 246 2 251
15 5 13 36 15 195 15 178 0 190 1 201 20 12 18 24 20 120 20 97 0 109 2 120
20 11 18 24 20 100 20 77 0 89 2 100 20 11 18 24 20 100 20 77 0 89 2 100 20
11 17 24 20 80 20 57 0 70 3 80 20 10 15 24 20 60 20 37 0 51 5 60 20 11 17
24 20 80 20 57 0 70 3 80 20 11 17 24 20 80 20 57 0 70 3 80 20 10 15 24 20
60 20 37 0 51 5 60 20 8 12 24 20 40 20 17 0 33 8 40 20 10 15 24 20 60 20 37
0 51 5 60 20 10 15 24 20 60 20 37 0 51 5 60 20 8 12 24 20 40 20 17 0 33 8
40 20 10 15 24 20 60 20 37 0 51 5 60 20 10 15 24 20 58 20 41 0 50 5 83 40
32 35 42 40 80 40 37 0 48 5 80 40 32 35 42 40 80 40 37 0 48 5 80 40 24 26
45 40 62 40 14 0 30 9 37 20 8 12 24 20 40 20 17 0 33 8 40 20 8 12 24 20 38
20 17 0 38 13 63 40 24 26 45 40 62 40 14 0 30 9 37 20 8 12 24 20 38 20 17 0
38 13 63 40 22 25 45 40 60 40 14 0 37 15 60 40 22 25 45 40 60 40 14 0 37 15
60 40 22 25 45 40 60 40 14 0 37 15 60 40 22 24 45 40 59 40 15 0 43 21 81 60
36 38 66 60 80 60 14 0 43 22 80 60 35 37 66 60 79 60 14 0 56 35 120 100 63
63 107 100 120 100 32 0 168 140 168 174 0 21 5 26 26 26 21 0 62 35 192 165
90 91 168 165 173 165 5 0 9 13 9 29 0 24 21 50 111 140 61 61 115 111 120
111 5 0 9 13 9 29 0 23 15 45 71 100 40 39 76 71 80 71 5 0 9 13 9 29 0 23 13
42 51 80 29 28 56 51 60 51 5 0 9 13 9 30 0 20 10 39 31 60 18 16 36 30 40 30
5 0 9 13 9 30 0 20 10 39 31 60 18 16 36 30 40 30 5 0 9 13 9 30 0 20 10 39
31 60 18 16 36 30 40 30 5 0 9 13 9 30 0 20 10 39 31 60 18 16 36 30 40 30 5
0 9 15 9 33 0 21 7 36 20 45 12 7 20 23 20 40 0 16 8 32 20 40 11 7 20 23 20
37 0 23 52 85 71 85 5 0 9 15 9 34 0 26 5 36 20 41 15 5 20 15 20 40 0 25 5
35 20 40 15 5 20 15 20 40 0 25 5 35 20 40 15 5 20 15 20 40 0 25 5 35 20 40
14 4 20 15 20 36 0 22 11 39 40 66 35 33 40 42 40 83 0 34 5 48 20 58 16 9 20
23 20 61 0 41 4 51 20 56 15 5 20 15 20 40 0 25 5 35 20 40 14 5 20 15 20 38
0 21 7 36 20 45 15 9 20 23 20 60 0 36 5 50 20 60 15 9 20 23 20 60 0 36 5 50
20 60 15 9 20 23 20 60 0 36 5 50 20 60 17 10 20 23 20 77 0 64 1 67 40 102
l40 37 0 86 c0 74 3 87 20 98 15 9 20 23 20 60 0 36 5 50 20 60 18 11 20 23
20 100 0 76 2 89 20 100 15 9 20 23 20 60 0 36 5 50 20 60 19 11 20 23 20 160
0 136 1 148 20 160 18 11 20 23 20 140 0 116 2 128 20 140 19 11 20 23 20 180
0 156 1 168 20 180 20 12 20 23 20 2360 l0 2347 -34 33 -33 32 -1584 0 -1584
0 -32 -34z"/>
</g>
</svg>